<mxfile host="app.diagrams.net" agent="Mozilla/5.0 (Windows NT 10.0; Win64; x64; rv:139.0) Gecko/20100101 Firefox/139.0" version="27.1.4">
  <diagram name="Página-1" id="wEdN3JB94oJvIYa_xMB6">
    <mxGraphModel dx="1699" dy="486" grid="1" gridSize="10" guides="1" tooltips="1" connect="1" arrows="1" fold="1" page="1" pageScale="1" pageWidth="827" pageHeight="1169" math="0" shadow="0">
      <root>
        <mxCell id="0" />
        <mxCell id="1" parent="0" />
        <mxCell id="XI2Rw1bQSnNNtNoHjDzu-7" value="" style="rounded=0;whiteSpace=wrap;html=1;dashed=1;dashPattern=1 2;" parent="1" vertex="1">
          <mxGeometry x="350" y="490" width="450" height="120" as="geometry" />
        </mxCell>
        <mxCell id="XI2Rw1bQSnNNtNoHjDzu-5" value="" style="rounded=0;whiteSpace=wrap;html=1;dashed=1;dashPattern=1 2;movable=1;resizable=1;rotatable=1;deletable=1;editable=1;locked=0;connectable=1;" parent="1" vertex="1">
          <mxGeometry x="350" y="340" width="450" height="140" as="geometry" />
        </mxCell>
        <mxCell id="XI2Rw1bQSnNNtNoHjDzu-9" value="" style="rounded=0;whiteSpace=wrap;html=1;dashed=1;dashPattern=1 2;movable=1;resizable=1;rotatable=1;deletable=1;editable=1;locked=0;connectable=1;" parent="1" vertex="1">
          <mxGeometry x="350" y="630" width="670" height="230" as="geometry" />
        </mxCell>
        <mxCell id="i4pVujV-CsmGKW15z4Tq-3" value="Papéis&lt;br&gt;&lt;br&gt;A - Adotante&lt;br&gt;V - Voluntário" style="rounded=0;whiteSpace=wrap;html=1;align=left;" parent="1" vertex="1">
          <mxGeometry x="-220" y="150" width="110" height="80" as="geometry" />
        </mxCell>
        <mxCell id="i4pVujV-CsmGKW15z4Tq-4" value="" style="rounded=0;whiteSpace=wrap;html=1;dashed=1;dashPattern=1 2;" parent="1" vertex="1">
          <mxGeometry x="80" y="400" width="179" height="90" as="geometry" />
        </mxCell>
        <mxCell id="XI2Rw1bQSnNNtNoHjDzu-33" style="edgeStyle=orthogonalEdgeStyle;rounded=0;orthogonalLoop=1;jettySize=auto;html=1;dashed=1;entryX=0;entryY=0.75;entryDx=0;entryDy=0;exitX=0.5;exitY=1;exitDx=0;exitDy=0;" parent="1" source="i4pVujV-CsmGKW15z4Tq-5" target="XI2Rw1bQSnNNtNoHjDzu-42" edge="1">
          <mxGeometry relative="1" as="geometry">
            <mxPoint x="210" y="760" as="targetPoint" />
            <mxPoint x="160" y="540" as="sourcePoint" />
            <Array as="points">
              <mxPoint x="170" y="470" />
              <mxPoint x="170" y="705" />
            </Array>
          </mxGeometry>
        </mxCell>
        <mxCell id="70lHlKheS9ZX0pddGqL_-13" style="edgeStyle=orthogonalEdgeStyle;rounded=0;orthogonalLoop=1;jettySize=auto;html=1;exitX=1;exitY=0.5;exitDx=0;exitDy=0;entryX=0;entryY=0.5;entryDx=0;entryDy=0;dashed=1;" parent="1" source="i4pVujV-CsmGKW15z4Tq-5" target="70lHlKheS9ZX0pddGqL_-7" edge="1">
          <mxGeometry relative="1" as="geometry">
            <Array as="points">
              <mxPoint x="290" y="450" />
              <mxPoint x="290" y="258" />
            </Array>
          </mxGeometry>
        </mxCell>
        <mxCell id="i4pVujV-CsmGKW15z4Tq-5" value="Definir acesso" style="rounded=1;whiteSpace=wrap;html=1;arcSize=15;align=right;" parent="1" vertex="1">
          <mxGeometry x="100" y="430" width="124" height="40" as="geometry" />
        </mxCell>
        <mxCell id="i4pVujV-CsmGKW15z4Tq-6" value="V" style="text;html=1;align=center;verticalAlign=middle;whiteSpace=wrap;rounded=1;strokeColor=default;" parent="1" vertex="1">
          <mxGeometry x="100" y="430" width="36" height="40" as="geometry" />
        </mxCell>
        <mxCell id="i4pVujV-CsmGKW15z4Tq-7" value="Sistema" style="text;html=1;align=center;verticalAlign=middle;whiteSpace=wrap;rounded=0;fontStyle=2" parent="1" vertex="1">
          <mxGeometry x="199" y="400" width="60" height="30" as="geometry" />
        </mxCell>
        <mxCell id="i4pVujV-CsmGKW15z4Tq-8" value="" style="rounded=0;whiteSpace=wrap;html=1;" parent="1" vertex="1">
          <mxGeometry x="-255" y="320" width="180" height="240" as="geometry" />
        </mxCell>
        <mxCell id="i4pVujV-CsmGKW15z4Tq-9" value="&lt;font style=&quot;font-size: 10px;&quot;&gt;objetivo instrumental&lt;/font&gt;" style="rounded=1;whiteSpace=wrap;html=1;arcSize=15;align=right;dashed=1;dashPattern=8 8;" parent="1" vertex="1">
          <mxGeometry x="-235" y="330" width="140" height="40" as="geometry" />
        </mxCell>
        <mxCell id="i4pVujV-CsmGKW15z4Tq-10" value="&lt;font style=&quot;font-size: 10px;&quot;&gt;papel&lt;/font&gt;" style="text;html=1;align=center;verticalAlign=middle;whiteSpace=wrap;rounded=0;strokeColor=default;dashed=1;dashPattern=8 8;" parent="1" vertex="1">
          <mxGeometry x="-235" y="330" width="36" height="40" as="geometry" />
        </mxCell>
        <mxCell id="i4pVujV-CsmGKW15z4Tq-11" value="&lt;font style=&quot;font-size: 10px;&quot;&gt;objetivo final&lt;/font&gt;" style="rounded=1;whiteSpace=wrap;html=1;arcSize=15;align=right;" parent="1" vertex="1">
          <mxGeometry x="-235" y="380" width="140" height="40" as="geometry" />
        </mxCell>
        <mxCell id="i4pVujV-CsmGKW15z4Tq-12" value="&lt;font style=&quot;font-size: 10px;&quot;&gt;papel&lt;/font&gt;" style="text;html=1;align=center;verticalAlign=middle;whiteSpace=wrap;rounded=0;strokeColor=default;" parent="1" vertex="1">
          <mxGeometry x="-235" y="380" width="36" height="40" as="geometry" />
        </mxCell>
        <mxCell id="i4pVujV-CsmGKW15z4Tq-13" value="&lt;font style=&quot;font-size: 10px;&quot;&gt;papel - possível papel&lt;br&gt;&lt;br&gt;- - -&amp;gt;&amp;nbsp; - instrumentos diretamente&lt;br&gt;&lt;br&gt;-----&amp;gt;&amp;nbsp; - instrumentos indiretamente&lt;/font&gt;" style="text;html=1;align=left;verticalAlign=middle;whiteSpace=wrap;rounded=0;" parent="1" vertex="1">
          <mxGeometry x="-245" y="430" width="160" height="110" as="geometry" />
        </mxCell>
        <mxCell id="XI2Rw1bQSnNNtNoHjDzu-3" value="" style="rounded=0;whiteSpace=wrap;html=1;dashed=1;dashPattern=1 2;movable=1;resizable=1;rotatable=1;deletable=1;editable=1;locked=0;connectable=1;" parent="1" vertex="1">
          <mxGeometry x="350" y="70" width="550" height="230" as="geometry" />
        </mxCell>
        <mxCell id="XI2Rw1bQSnNNtNoHjDzu-4" value="&lt;i&gt;página inicial&lt;/i&gt;" style="text;html=1;align=center;verticalAlign=middle;whiteSpace=wrap;rounded=0;movable=1;resizable=1;rotatable=1;deletable=1;editable=1;locked=0;connectable=1;" parent="1" vertex="1">
          <mxGeometry x="820" y="70" width="80" height="30" as="geometry" />
        </mxCell>
        <mxCell id="XI2Rw1bQSnNNtNoHjDzu-8" value="&lt;i&gt;forma de apoiar (voluntário)&lt;/i&gt;" style="text;html=1;align=center;verticalAlign=middle;whiteSpace=wrap;rounded=0;" parent="1" vertex="1">
          <mxGeometry x="650" y="490" width="150" height="30" as="geometry" />
        </mxCell>
        <mxCell id="XI2Rw1bQSnNNtNoHjDzu-13" value="" style="rounded=0;whiteSpace=wrap;html=1;dashed=1;dashPattern=1 2;" parent="1" vertex="1">
          <mxGeometry x="1210" y="610" width="450" height="120" as="geometry" />
        </mxCell>
        <mxCell id="XI2Rw1bQSnNNtNoHjDzu-14" value="&lt;i&gt;critérios sobre adoção&lt;/i&gt;" style="text;html=1;align=center;verticalAlign=middle;whiteSpace=wrap;rounded=0;" parent="1" vertex="1">
          <mxGeometry x="1530" y="610" width="130" height="30" as="geometry" />
        </mxCell>
        <mxCell id="XI2Rw1bQSnNNtNoHjDzu-15" value="" style="rounded=0;whiteSpace=wrap;html=1;dashed=1;dashPattern=1 2;" parent="1" vertex="1">
          <mxGeometry x="1210" y="939" width="450" height="120" as="geometry" />
        </mxCell>
        <mxCell id="XI2Rw1bQSnNNtNoHjDzu-16" value="&lt;i&gt;painel de notícias&lt;/i&gt;" style="text;html=1;align=center;verticalAlign=middle;whiteSpace=wrap;rounded=0;" parent="1" vertex="1">
          <mxGeometry x="1560" y="939" width="100" height="30" as="geometry" />
        </mxCell>
        <mxCell id="XI2Rw1bQSnNNtNoHjDzu-17" value="" style="rounded=0;whiteSpace=wrap;html=1;dashed=1;dashPattern=1 2;" parent="1" vertex="1">
          <mxGeometry x="1210" y="780" width="450" height="120" as="geometry" />
        </mxCell>
        <mxCell id="XI2Rw1bQSnNNtNoHjDzu-18" value="&lt;i&gt;aviso de denúncias&lt;/i&gt;" style="text;html=1;align=center;verticalAlign=middle;whiteSpace=wrap;rounded=0;" parent="1" vertex="1">
          <mxGeometry x="1540" y="780" width="120" height="30" as="geometry" />
        </mxCell>
        <mxCell id="XI2Rw1bQSnNNtNoHjDzu-10" value="&lt;i&gt;painel de cachorros&lt;/i&gt;" style="text;html=1;align=center;verticalAlign=middle;whiteSpace=wrap;rounded=0;movable=1;resizable=1;rotatable=1;deletable=1;editable=1;locked=0;connectable=1;" parent="1" vertex="1">
          <mxGeometry x="910" y="630" width="110" height="30" as="geometry" />
        </mxCell>
        <mxCell id="i4pVujV-CsmGKW15z4Tq-24" value="Objetivo final" style="text;html=1;align=center;verticalAlign=middle;resizable=0;points=[];autosize=1;strokeColor=none;fillColor=none;fontSize=10;" parent="1" vertex="1">
          <mxGeometry x="790" y="775" width="80" height="30" as="geometry" />
        </mxCell>
        <mxCell id="XI2Rw1bQSnNNtNoHjDzu-30" value="Consultar informações sobre a ONG" style="rounded=1;whiteSpace=wrap;html=1;arcSize=15;align=right;fontSize=10;" parent="1" vertex="1">
          <mxGeometry x="370" y="395" width="230" height="40" as="geometry" />
        </mxCell>
        <mxCell id="XI2Rw1bQSnNNtNoHjDzu-31" value="V&lt;br&gt;&lt;div&gt;A&lt;/div&gt;" style="text;html=1;align=center;verticalAlign=middle;whiteSpace=wrap;rounded=1;strokeColor=default;fontSize=10;" parent="1" vertex="1">
          <mxGeometry x="370" y="395" width="50" height="40" as="geometry" />
        </mxCell>
        <mxCell id="XI2Rw1bQSnNNtNoHjDzu-6" value="&lt;i&gt;painel de informação sobre a ONG&lt;/i&gt;" style="text;html=1;align=center;verticalAlign=middle;whiteSpace=wrap;rounded=0;movable=1;resizable=1;rotatable=1;deletable=1;editable=1;locked=0;connectable=1;" parent="1" vertex="1">
          <mxGeometry x="600" y="340" width="200" height="30" as="geometry" />
        </mxCell>
        <mxCell id="XI2Rw1bQSnNNtNoHjDzu-34" value="" style="group" parent="1" connectable="0" vertex="1">
          <mxGeometry x="390" y="770" width="220" height="40" as="geometry" />
        </mxCell>
        <mxCell id="XI2Rw1bQSnNNtNoHjDzu-1" value="Consultar dados de um cachorro" style="rounded=1;whiteSpace=wrap;html=1;arcSize=15;align=right;fontSize=10;" parent="XI2Rw1bQSnNNtNoHjDzu-34" vertex="1">
          <mxGeometry width="220" height="40" as="geometry" />
        </mxCell>
        <mxCell id="XI2Rw1bQSnNNtNoHjDzu-2" value="V&lt;br&gt;&lt;div&gt;A&lt;/div&gt;" style="text;html=1;align=center;verticalAlign=middle;whiteSpace=wrap;rounded=1;strokeColor=default;fontSize=10;" parent="XI2Rw1bQSnNNtNoHjDzu-34" vertex="1">
          <mxGeometry width="57.89473684210527" height="40" as="geometry" />
        </mxCell>
        <mxCell id="XI2Rw1bQSnNNtNoHjDzu-35" value="" style="group" parent="1" connectable="0" vertex="1">
          <mxGeometry x="660" y="650" width="200" height="40" as="geometry" />
        </mxCell>
        <mxCell id="i4pVujV-CsmGKW15z4Tq-14" value="Adicionar cachorro ao painel" style="rounded=1;whiteSpace=wrap;html=1;arcSize=15;align=right;fontSize=10;" parent="XI2Rw1bQSnNNtNoHjDzu-35" vertex="1">
          <mxGeometry width="200" height="40" as="geometry" />
        </mxCell>
        <mxCell id="i4pVujV-CsmGKW15z4Tq-15" value="V" style="text;html=1;align=center;verticalAlign=middle;whiteSpace=wrap;rounded=1;strokeColor=default;fontSize=10;" parent="XI2Rw1bQSnNNtNoHjDzu-35" vertex="1">
          <mxGeometry width="50" height="40" as="geometry" />
        </mxCell>
        <mxCell id="XI2Rw1bQSnNNtNoHjDzu-38" value="" style="group" parent="1" connectable="0" vertex="1">
          <mxGeometry x="660" y="695" width="200" height="40" as="geometry" />
        </mxCell>
        <mxCell id="XI2Rw1bQSnNNtNoHjDzu-26" value="Remover cachorro ao painel" style="rounded=1;whiteSpace=wrap;html=1;arcSize=15;align=right;fontSize=10;" parent="XI2Rw1bQSnNNtNoHjDzu-38" vertex="1">
          <mxGeometry width="200" height="40" as="geometry" />
        </mxCell>
        <mxCell id="XI2Rw1bQSnNNtNoHjDzu-27" value="V" style="text;html=1;align=center;verticalAlign=middle;whiteSpace=wrap;rounded=1;strokeColor=default;fontSize=10;" parent="XI2Rw1bQSnNNtNoHjDzu-38" vertex="1">
          <mxGeometry width="50" height="40" as="geometry" />
        </mxCell>
        <mxCell id="XI2Rw1bQSnNNtNoHjDzu-39" value="" style="group" parent="1" connectable="0" vertex="1">
          <mxGeometry x="660" y="770" width="130" height="40" as="geometry" />
        </mxCell>
        <mxCell id="i4pVujV-CsmGKW15z4Tq-16" value="Adotar cachorro" style="rounded=1;whiteSpace=wrap;html=1;arcSize=15;align=right;fontSize=10;" parent="XI2Rw1bQSnNNtNoHjDzu-39" vertex="1">
          <mxGeometry width="130" height="40" as="geometry" />
        </mxCell>
        <mxCell id="i4pVujV-CsmGKW15z4Tq-17" value="A" style="text;html=1;align=center;verticalAlign=middle;whiteSpace=wrap;rounded=1;strokeColor=default;fontSize=10;" parent="XI2Rw1bQSnNNtNoHjDzu-39" vertex="1">
          <mxGeometry width="50" height="40" as="geometry" />
        </mxCell>
        <mxCell id="XI2Rw1bQSnNNtNoHjDzu-40" value="" style="group" parent="1" connectable="0" vertex="1">
          <mxGeometry x="405" y="675" width="190" height="40" as="geometry" />
        </mxCell>
        <mxCell id="XI2Rw1bQSnNNtNoHjDzu-41" value="Visualizar painel de cachorros" style="rounded=1;whiteSpace=wrap;html=1;arcSize=15;align=right;fontSize=10;" parent="XI2Rw1bQSnNNtNoHjDzu-40" vertex="1">
          <mxGeometry width="190" height="40" as="geometry" />
        </mxCell>
        <mxCell id="XI2Rw1bQSnNNtNoHjDzu-42" value="V&lt;br&gt;&lt;div&gt;A&lt;/div&gt;" style="text;html=1;align=center;verticalAlign=middle;whiteSpace=wrap;rounded=1;strokeColor=default;fontSize=10;" parent="XI2Rw1bQSnNNtNoHjDzu-40" vertex="1">
          <mxGeometry width="50" height="40" as="geometry" />
        </mxCell>
        <mxCell id="XI2Rw1bQSnNNtNoHjDzu-44" style="edgeStyle=orthogonalEdgeStyle;rounded=0;orthogonalLoop=1;jettySize=auto;html=1;entryX=0;entryY=0.5;entryDx=0;entryDy=0;curved=1;endArrow=block;endFill=1;" parent="1" source="XI2Rw1bQSnNNtNoHjDzu-41" target="i4pVujV-CsmGKW15z4Tq-15" edge="1">
          <mxGeometry relative="1" as="geometry" />
        </mxCell>
        <mxCell id="XI2Rw1bQSnNNtNoHjDzu-45" style="edgeStyle=orthogonalEdgeStyle;rounded=0;orthogonalLoop=1;jettySize=auto;html=1;exitX=1;exitY=0.5;exitDx=0;exitDy=0;entryX=0;entryY=0.5;entryDx=0;entryDy=0;curved=1;strokeColor=default;endArrow=block;endFill=1;" parent="1" source="XI2Rw1bQSnNNtNoHjDzu-41" target="XI2Rw1bQSnNNtNoHjDzu-27" edge="1">
          <mxGeometry relative="1" as="geometry" />
        </mxCell>
        <mxCell id="XI2Rw1bQSnNNtNoHjDzu-47" style="edgeStyle=orthogonalEdgeStyle;rounded=0;orthogonalLoop=1;jettySize=auto;html=1;entryX=0;entryY=0.5;entryDx=0;entryDy=0;exitX=1;exitY=0.5;exitDx=0;exitDy=0;" parent="1" source="XI2Rw1bQSnNNtNoHjDzu-1" target="i4pVujV-CsmGKW15z4Tq-17" edge="1">
          <mxGeometry relative="1" as="geometry">
            <mxPoint x="580" y="890" as="sourcePoint" />
            <Array as="points" />
          </mxGeometry>
        </mxCell>
        <mxCell id="XI2Rw1bQSnNNtNoHjDzu-51" style="edgeStyle=orthogonalEdgeStyle;rounded=0;orthogonalLoop=1;jettySize=auto;html=1;entryX=0.5;entryY=0;entryDx=0;entryDy=0;" parent="1" source="XI2Rw1bQSnNNtNoHjDzu-41" target="XI2Rw1bQSnNNtNoHjDzu-1" edge="1">
          <mxGeometry relative="1" as="geometry" />
        </mxCell>
        <mxCell id="XI2Rw1bQSnNNtNoHjDzu-19" value="" style="rounded=0;whiteSpace=wrap;html=1;dashed=1;dashPattern=1 2;movable=1;resizable=1;rotatable=1;deletable=1;editable=1;locked=0;connectable=1;" parent="1" vertex="1">
          <mxGeometry x="350" y="890" width="680" height="90" as="geometry" />
        </mxCell>
        <mxCell id="XI2Rw1bQSnNNtNoHjDzu-20" value="&lt;i&gt;painel de login&lt;/i&gt;" style="text;html=1;align=center;verticalAlign=middle;whiteSpace=wrap;rounded=0;movable=1;resizable=1;rotatable=1;deletable=1;editable=1;locked=0;connectable=1;" parent="1" vertex="1">
          <mxGeometry x="935" y="890" width="90" height="26.9" as="geometry" />
        </mxCell>
        <mxCell id="qYq3hFcS99n5BvbIT8UH-9" value="" style="group" parent="1" connectable="0" vertex="1">
          <mxGeometry x="480" y="914.83" width="130" height="40" as="geometry" />
        </mxCell>
        <mxCell id="qYq3hFcS99n5BvbIT8UH-10" value="Cadastrar conta" style="rounded=1;whiteSpace=wrap;html=1;arcSize=15;align=right;fontSize=10;" parent="qYq3hFcS99n5BvbIT8UH-9" vertex="1">
          <mxGeometry width="130" height="40" as="geometry" />
        </mxCell>
        <mxCell id="qYq3hFcS99n5BvbIT8UH-11" value="V&lt;br&gt;&lt;div&gt;A&lt;/div&gt;" style="text;html=1;align=center;verticalAlign=middle;whiteSpace=wrap;rounded=1;strokeColor=default;fontSize=10;" parent="qYq3hFcS99n5BvbIT8UH-9" vertex="1">
          <mxGeometry width="34.21052631578947" height="40" as="geometry" />
        </mxCell>
        <mxCell id="qYq3hFcS99n5BvbIT8UH-6" value="" style="group" parent="1" connectable="0" vertex="1">
          <mxGeometry x="653" y="916.9010344827587" width="144" height="35.862068965517246" as="geometry" />
        </mxCell>
        <mxCell id="qYq3hFcS99n5BvbIT8UH-7" value="Inserir email e senha" style="rounded=1;whiteSpace=wrap;html=1;arcSize=15;align=right;fontSize=10;" parent="qYq3hFcS99n5BvbIT8UH-6" vertex="1">
          <mxGeometry width="144" height="35.862068965517246" as="geometry" />
        </mxCell>
        <mxCell id="qYq3hFcS99n5BvbIT8UH-8" value="V&lt;br&gt;&lt;div&gt;A&lt;/div&gt;" style="text;html=1;align=center;verticalAlign=middle;whiteSpace=wrap;rounded=1;strokeColor=default;fontSize=10;" parent="qYq3hFcS99n5BvbIT8UH-6" vertex="1">
          <mxGeometry width="37.894736842105246" height="35.862068965517246" as="geometry" />
        </mxCell>
        <mxCell id="qYq3hFcS99n5BvbIT8UH-13" style="edgeStyle=orthogonalEdgeStyle;rounded=0;orthogonalLoop=1;jettySize=auto;html=1;entryX=0;entryY=0.5;entryDx=0;entryDy=0;" parent="1" source="qYq3hFcS99n5BvbIT8UH-10" target="qYq3hFcS99n5BvbIT8UH-8" edge="1">
          <mxGeometry relative="1" as="geometry" />
        </mxCell>
        <mxCell id="XI2Rw1bQSnNNtNoHjDzu-23" style="edgeStyle=orthogonalEdgeStyle;rounded=0;orthogonalLoop=1;jettySize=auto;html=1;entryX=0.5;entryY=0;entryDx=0;entryDy=0;" parent="1" source="i4pVujV-CsmGKW15z4Tq-16" target="qYq3hFcS99n5BvbIT8UH-7" edge="1">
          <mxGeometry relative="1" as="geometry" />
        </mxCell>
        <mxCell id="qYq3hFcS99n5BvbIT8UH-26" value="" style="group" parent="1" connectable="0" vertex="1">
          <mxGeometry x="655" y="1043.79" width="370" height="60" as="geometry" />
        </mxCell>
        <mxCell id="XI2Rw1bQSnNNtNoHjDzu-21" value="" style="rounded=0;whiteSpace=wrap;html=1;dashed=1;dashPattern=1 2;" parent="qYq3hFcS99n5BvbIT8UH-26" vertex="1">
          <mxGeometry x="-305" y="-20" width="675" height="80" as="geometry" />
        </mxCell>
        <mxCell id="qYq3hFcS99n5BvbIT8UH-27" value="Preencher formulário" style="rounded=1;whiteSpace=wrap;html=1;arcSize=15;align=right;fontSize=10;" parent="qYq3hFcS99n5BvbIT8UH-26" vertex="1">
          <mxGeometry width="140" height="40" as="geometry" />
        </mxCell>
        <mxCell id="qYq3hFcS99n5BvbIT8UH-28" value="A" style="text;html=1;align=center;verticalAlign=middle;whiteSpace=wrap;rounded=1;strokeColor=default;fontSize=10;" parent="qYq3hFcS99n5BvbIT8UH-26" vertex="1">
          <mxGeometry width="36.84210526315789" height="40" as="geometry" />
        </mxCell>
        <mxCell id="XI2Rw1bQSnNNtNoHjDzu-22" value="&lt;i&gt;formulario de adoção&lt;/i&gt;" style="text;html=1;align=center;verticalAlign=middle;whiteSpace=wrap;rounded=0;" parent="qYq3hFcS99n5BvbIT8UH-26" vertex="1">
          <mxGeometry x="250.39999999999998" y="-20" width="119.60000000000001" height="23.793103448275865" as="geometry" />
        </mxCell>
        <mxCell id="XI2Rw1bQSnNNtNoHjDzu-24" style="edgeStyle=orthogonalEdgeStyle;rounded=0;orthogonalLoop=1;jettySize=auto;html=1;exitX=0.5;exitY=1;exitDx=0;exitDy=0;entryX=0.5;entryY=0;entryDx=0;entryDy=0;" parent="1" source="qYq3hFcS99n5BvbIT8UH-7" target="qYq3hFcS99n5BvbIT8UH-27" edge="1">
          <mxGeometry relative="1" as="geometry" />
        </mxCell>
        <mxCell id="XI2Rw1bQSnNNtNoHjDzu-25" style="edgeStyle=orthogonalEdgeStyle;rounded=0;orthogonalLoop=1;jettySize=auto;html=1;dashed=1;exitX=0.5;exitY=1;exitDx=0;exitDy=0;entryX=0;entryY=0.5;entryDx=0;entryDy=0;" parent="1" source="qYq3hFcS99n5BvbIT8UH-27" target="ywfZCX4Wu9mnoEg-Z7cS-3" edge="1">
          <mxGeometry relative="1" as="geometry">
            <Array as="points">
              <mxPoint x="725" y="1130" />
              <mxPoint x="320" y="1130" />
              <mxPoint x="320" y="128" />
            </Array>
            <mxPoint x="300" y="50" as="targetPoint" />
          </mxGeometry>
        </mxCell>
        <mxCell id="ywfZCX4Wu9mnoEg-Z7cS-1" value="" style="group" parent="1" connectable="0" vertex="1">
          <mxGeometry x="370" y="110" width="230" height="35.86" as="geometry" />
        </mxCell>
        <mxCell id="ywfZCX4Wu9mnoEg-Z7cS-2" value="Acessar informações sobre a ONG" style="rounded=1;whiteSpace=wrap;html=1;arcSize=15;align=right;fontSize=10;" parent="ywfZCX4Wu9mnoEg-Z7cS-1" vertex="1">
          <mxGeometry width="230.00000000000003" height="35.86" as="geometry" />
        </mxCell>
        <mxCell id="ywfZCX4Wu9mnoEg-Z7cS-3" value="V&lt;br&gt;&lt;div&gt;A&lt;/div&gt;" style="text;html=1;align=center;verticalAlign=middle;whiteSpace=wrap;rounded=1;strokeColor=default;fontSize=10;" parent="ywfZCX4Wu9mnoEg-Z7cS-1" vertex="1">
          <mxGeometry width="50" height="35.86" as="geometry" />
        </mxCell>
        <mxCell id="ywfZCX4Wu9mnoEg-Z7cS-4" value="" style="group" parent="1" connectable="0" vertex="1">
          <mxGeometry x="370" y="180" width="220" height="35.86" as="geometry" />
        </mxCell>
        <mxCell id="ywfZCX4Wu9mnoEg-Z7cS-5" value="Consultar cachorros para adoção" style="rounded=1;whiteSpace=wrap;html=1;arcSize=15;align=right;fontSize=10;" parent="ywfZCX4Wu9mnoEg-Z7cS-4" vertex="1">
          <mxGeometry width="220.00000000000003" height="35.86" as="geometry" />
        </mxCell>
        <mxCell id="ywfZCX4Wu9mnoEg-Z7cS-6" value="V&lt;br&gt;&lt;div&gt;A&lt;/div&gt;" style="text;html=1;align=center;verticalAlign=middle;whiteSpace=wrap;rounded=1;strokeColor=default;fontSize=10;" parent="ywfZCX4Wu9mnoEg-Z7cS-4" vertex="1">
          <mxGeometry width="50" height="35.86" as="geometry" />
        </mxCell>
        <mxCell id="ywfZCX4Wu9mnoEg-Z7cS-8" style="edgeStyle=orthogonalEdgeStyle;rounded=0;orthogonalLoop=1;jettySize=auto;html=1;entryX=0;entryY=0.5;entryDx=0;entryDy=0;exitX=0;exitY=0.5;exitDx=0;exitDy=0;dashed=1;dashPattern=12 12;" parent="1" source="ywfZCX4Wu9mnoEg-Z7cS-6" target="XI2Rw1bQSnNNtNoHjDzu-42" edge="1">
          <mxGeometry relative="1" as="geometry">
            <Array as="points">
              <mxPoint x="330" y="198" />
              <mxPoint x="330" y="695" />
            </Array>
          </mxGeometry>
        </mxCell>
        <mxCell id="70lHlKheS9ZX0pddGqL_-1" value="" style="group" parent="1" connectable="0" vertex="1">
          <mxGeometry x="660" y="110" width="220" height="35.86" as="geometry" />
        </mxCell>
        <mxCell id="70lHlKheS9ZX0pddGqL_-2" value="Acessar redes sociais da ONG" style="rounded=1;whiteSpace=wrap;html=1;arcSize=15;align=right;fontSize=10;" parent="70lHlKheS9ZX0pddGqL_-1" vertex="1">
          <mxGeometry width="220.00000000000003" height="35.86" as="geometry" />
        </mxCell>
        <mxCell id="70lHlKheS9ZX0pddGqL_-3" value="V&lt;br&gt;&lt;div&gt;A&lt;/div&gt;" style="text;html=1;align=center;verticalAlign=middle;whiteSpace=wrap;rounded=1;strokeColor=default;fontSize=10;" parent="70lHlKheS9ZX0pddGqL_-1" vertex="1">
          <mxGeometry width="50" height="35.86" as="geometry" />
        </mxCell>
        <mxCell id="70lHlKheS9ZX0pddGqL_-5" value="" style="group" parent="1" connectable="0" vertex="1">
          <mxGeometry x="510" y="240" width="230" height="35.86" as="geometry" />
        </mxCell>
        <mxCell id="70lHlKheS9ZX0pddGqL_-6" value="Enviar mensagem de feedback a ONG" style="rounded=1;whiteSpace=wrap;html=1;arcSize=15;align=right;fontSize=10;" parent="70lHlKheS9ZX0pddGqL_-5" vertex="1">
          <mxGeometry width="230" height="35.86" as="geometry" />
        </mxCell>
        <mxCell id="70lHlKheS9ZX0pddGqL_-7" value="V&lt;br&gt;&lt;div&gt;A&lt;/div&gt;" style="text;html=1;align=center;verticalAlign=middle;whiteSpace=wrap;rounded=1;strokeColor=default;fontSize=10;" parent="70lHlKheS9ZX0pddGqL_-5" vertex="1">
          <mxGeometry width="52.272727272727266" height="35.86" as="geometry" />
        </mxCell>
        <mxCell id="70lHlKheS9ZX0pddGqL_-8" style="edgeStyle=orthogonalEdgeStyle;rounded=0;orthogonalLoop=1;jettySize=auto;html=1;exitX=0;exitY=0.5;exitDx=0;exitDy=0;entryX=0;entryY=0.5;entryDx=0;entryDy=0;dashed=1;" parent="1" source="70lHlKheS9ZX0pddGqL_-7" target="qYq3hFcS99n5BvbIT8UH-11" edge="1">
          <mxGeometry relative="1" as="geometry">
            <Array as="points">
              <mxPoint x="340" y="258" />
              <mxPoint x="340" y="935" />
            </Array>
          </mxGeometry>
        </mxCell>
        <mxCell id="70lHlKheS9ZX0pddGqL_-10" value="" style="group" parent="1" connectable="0" vertex="1">
          <mxGeometry x="660" y="180" width="220" height="35.86" as="geometry" />
        </mxCell>
        <mxCell id="70lHlKheS9ZX0pddGqL_-11" value="Acessar as formas de apoio a ONG" style="rounded=1;whiteSpace=wrap;html=1;arcSize=15;align=right;fontSize=10;" parent="70lHlKheS9ZX0pddGqL_-10" vertex="1">
          <mxGeometry width="220.00000000000003" height="35.86" as="geometry" />
        </mxCell>
        <mxCell id="70lHlKheS9ZX0pddGqL_-12" value="V&lt;br&gt;&lt;div&gt;A&lt;/div&gt;" style="text;html=1;align=center;verticalAlign=middle;whiteSpace=wrap;rounded=1;strokeColor=default;fontSize=10;" parent="70lHlKheS9ZX0pddGqL_-10" vertex="1">
          <mxGeometry width="50" height="35.86" as="geometry" />
        </mxCell>
        <mxCell id="70lHlKheS9ZX0pddGqL_-15" style="edgeStyle=orthogonalEdgeStyle;rounded=0;orthogonalLoop=1;jettySize=auto;html=1;exitX=1;exitY=0.5;exitDx=0;exitDy=0;entryX=1;entryY=0.5;entryDx=0;entryDy=0;" parent="1" source="70lHlKheS9ZX0pddGqL_-11" target="XI2Rw1bQSnNNtNoHjDzu-7" edge="1">
          <mxGeometry relative="1" as="geometry">
            <Array as="points">
              <mxPoint x="980" y="198" />
              <mxPoint x="980" y="550" />
            </Array>
          </mxGeometry>
        </mxCell>
        <mxCell id="70lHlKheS9ZX0pddGqL_-17" style="edgeStyle=orthogonalEdgeStyle;rounded=0;orthogonalLoop=1;jettySize=auto;html=1;exitX=0.5;exitY=0;exitDx=0;exitDy=0;entryX=1;entryY=0.5;entryDx=0;entryDy=0;" parent="1" source="ywfZCX4Wu9mnoEg-Z7cS-2" target="XI2Rw1bQSnNNtNoHjDzu-30" edge="1">
          <mxGeometry relative="1" as="geometry">
            <Array as="points">
              <mxPoint x="485" y="40" />
              <mxPoint x="1040" y="40" />
              <mxPoint x="1040" y="415" />
            </Array>
          </mxGeometry>
        </mxCell>
      </root>
    </mxGraphModel>
  </diagram>
</mxfile>
